<svg width="33" height="29" viewBox="0 0 33 29" fill="none" xmlns="http://www.w3.org/2000/svg">
<path d="M23.4439 24.505C22.0964 25.6529 20.6251 25.4717 19.2089 24.9279C17.7101 24.3721 16.3351 24.3479 14.7539 24.9279C12.7739 25.6771 11.7289 25.4596 10.5464 24.505C3.83635 18.4271 4.82635 9.17125 12.4439 8.83292C14.3001 8.9175 15.5926 9.72708 16.6789 9.79958C18.3014 9.50958 19.8551 8.67583 21.5876 8.78458C23.6639 8.92958 25.2314 9.65458 26.2626 10.9596C21.9726 13.2192 22.9901 18.1854 26.9226 19.575C26.1389 21.3875 25.1214 23.1879 23.4301 24.5171L23.4439 24.505ZM16.5414 8.76042C16.3351 6.06583 18.8239 3.8425 21.6839 3.625C22.0826 6.7425 18.4664 9.0625 16.5414 8.76042Z" fill="#FCFDF7"/>
</svg>
