<svg width="82" height="35" viewBox="0 0 82 35" fill="none" xmlns="http://www.w3.org/2000/svg">
<g clip-path="url(#clip0_873_6563)">
<path d="M59.6925 11L63.3142 14.0946L43.5761 30.95C43.2598 31.2217 42.8837 31.4373 42.4694 31.5845C42.0552 31.7316 41.6109 31.8074 41.1622 31.8074C40.7135 31.8074 40.2692 31.7316 39.855 31.5845C39.4407 31.4373 39.0646 31.2217 38.7483 30.95L19 14.0946L22.6217 11.0029L41.1571 26.8229L59.6925 11Z" fill="#FCFDF7" fill-opacity="0.67"/>
<g clip-path="url(#clip1_873_6563)">
<path d="M59.5187 -1.84833L63.1403 1.24625L43.4023 18.1017C43.086 18.3734 42.7099 18.589 42.2956 18.7361C41.8813 18.8833 41.4371 18.959 40.9884 18.959C40.5397 18.959 40.0954 18.8833 39.6811 18.7361C39.2669 18.589 38.8908 18.3734 38.5745 18.1017L18.8262 1.24625L22.4478 -1.84542L40.9833 13.9746L59.5187 -1.84833Z" fill="#FCFDF7"/>
</g>
</g>
<defs>
<clipPath id="clip0_873_6563">
<rect width="35" height="82" fill="white" transform="matrix(0 1 -1 0 82 0)"/>
</clipPath>
<clipPath id="clip1_873_6563">
<rect width="35" height="82" fill="white" transform="matrix(0 1 -1 0 82 -9)"/>
</clipPath>
</defs>
</svg>
