<svg width="63" height="63" viewBox="0 0 63 63" fill="none" xmlns="http://www.w3.org/2000/svg">
<path fill-rule="evenodd" clip-rule="evenodd" d="M9.84375 7.875C9.3216 7.875 8.82085 8.08242 8.45163 8.45163C8.08242 8.82085 7.875 9.3216 7.875 9.84375V43.3125H11.8125V55.125H53.1562C53.6784 55.125 54.1792 54.9176 54.5484 54.5484C54.9176 54.1792 55.125 53.6784 55.125 53.1562V19.6875H51.1875V11.8125H47.25V7.875H9.84375ZM29.5312 17.7188V21.6562C26.2789 21.6562 23.625 24.3101 23.625 27.5625C23.625 30.8149 26.2789 33.4688 29.5312 33.4688H33.4688C34.5476 33.4688 35.4375 34.3586 35.4375 35.4375C35.4375 36.5164 34.5476 37.4062 33.4688 37.4062H23.625V41.3438H29.5312V45.2812H33.4688V41.3438C36.7211 41.3438 39.375 38.6899 39.375 35.4375C39.375 32.1851 36.7211 29.5312 33.4688 29.5312H29.5312C29.0101 29.5282 28.5111 29.3197 28.1426 28.9512C27.774 28.5826 27.5656 28.0837 27.5625 27.5625C27.5625 26.4836 28.4524 25.5938 29.5312 25.5938H39.375V21.6562H33.4688V17.7188H29.5312Z" fill="#FCFDF7"/>
</svg>
