<svg width="270" height="302" viewBox="0 0 270 302" fill="none" xmlns="http://www.w3.org/2000/svg">
<path d="M220.771 300.256C223.121 302.592 226.92 302.58 229.256 300.229L267.318 261.924C269.654 259.574 269.642 255.775 267.291 253.439C264.941 251.103 261.142 251.116 258.806 253.466L224.973 287.515L190.924 253.682C188.574 251.346 184.775 251.358 182.439 253.708C180.103 256.059 180.115 259.858 182.466 262.194L220.771 300.256ZM0.973444 1.78156C8.63726 60.1177 26.3949 95.104 49.4269 117.772C72.3144 140.297 99.8201 149.993 125.026 158.889C150.62 167.922 173.51 176.058 190.445 194.643C207.179 213.007 218.83 242.529 219 296.019L231 295.981C230.825 240.886 218.818 207.964 199.315 186.56C180.012 165.377 154.086 156.42 129.02 147.573C103.566 138.589 78.5687 129.616 57.8442 109.219C37.2642 88.9645 20.3013 56.7755 12.8712 0.2185L0.973444 1.78156Z" fill="white"/>
</svg>
