<svg width="130" height="243" viewBox="0 0 130 243" fill="none" xmlns="http://www.w3.org/2000/svg">
<path d="M104.867 242.11C106.032 243.288 107.932 243.298 109.109 242.133L128.304 223.146C129.482 221.981 129.493 220.082 128.328 218.904C127.163 217.726 125.263 217.715 124.085 218.881L107.023 235.758L90.146 218.695C88.9809 217.518 87.0815 217.507 85.9036 218.672C84.7257 219.837 84.7153 221.737 85.8804 222.915L104.867 242.11ZM0.0073614 1.2123C3.33872 48.173 11.614 75.9716 22.412 93.9058C33.279 111.954 46.544 119.719 58.8255 126.879C71.0522 134.008 82.1495 140.467 90.3816 155.746C98.6932 171.173 104.24 195.931 104 239.984L110 240.016C110.242 195.619 104.689 169.652 95.6635 152.9C86.5588 136.002 74.0832 128.83 61.8474 121.696C49.6664 114.594 37.5795 107.466 27.552 90.811C17.4555 74.0421 9.29361 47.3279 5.99208 0.787746L0.0073614 1.2123Z" fill="white"/>
</svg>
